External Loads File
version=1
nRows=93
nColumns=13
Range=5.000000e-03-10 seconds
endheader
time 	forceRightX 	forceRightY 	forceRightZ 	pointRightX 	pointRightY 	pointRightZ 	forceLeftX 	forceLeftY 	forceLeftZ 	pointLeftX 	pointLeftY 	pointLeftZ 		
7.505000 138.075368 60.187985 -0.000000 0.176728 0.170017 -0.098996 6.249482 237.829300 -0.000000 0.347618 0.463499 -0.344657
7.510000 121.956214 -13.118808 -0.000000 0.168298 0.176892 -0.098948 -1.540157 248.604621 -0.000000 0.353611 0.458665 -0.345229
7.515000 103.906317 -82.580546 -0.000000 0.160163 0.184310 -0.099356 -9.929830 263.934491 -0.000000 0.359290 0.453333 -0.345541
7.520000 83.286662 -145.734673 -0.000000 0.151832 0.191787 -0.100811 -18.925209 283.999424 -0.000000 0.364373 0.447168 -0.345574
7.525000 60.880230 -199.318598 -0.000000 0.145130 0.199450 -0.101378 -29.741014 308.447409 -0.000000 0.369135 0.440382 -0.345887
7.530000 37.288088 -240.844704 -0.000000 0.138728 0.207145 -0.101104 -41.475877 336.678384 -0.000000 0.373654 0.432851 -0.346494
7.535000 14.495530 -268.357651 -0.000000 0.133450 0.215086 -0.101378 -54.420395 367.766717 -0.000000 0.377846 0.424641 -0.347425
7.540000 -5.876207 -281.382704 -0.000000 0.128533 0.223196 -0.101239 -67.738780 400.853353 -0.000000 0.381769 0.415934 -0.347831
7.545000 -21.730706 -280.862163 -0.000000 0.124006 0.231634 -0.101319 -81.330810 435.007327 -0.000000 0.385461 0.407296 -0.347287
7.550000 -31.973580 -268.964512 -0.000000 0.120067 0.240301 -0.101387 -94.312489 469.539619 -0.000000 0.388767 0.398013 -0.346763
7.555000 -36.506705 -248.547446 -0.000000 0.116537 0.249349 -0.101674 -104.958771 504.137718 -0.000000 0.391535 0.387501 -0.346728
7.560000 -34.363715 -222.983784 -0.000000 0.113510 0.258555 -0.101827 -114.451821 538.065184 -0.000000 0.394002 0.377033 -0.346541
7.565000 -26.704078 -195.276282 -0.000000 0.111038 0.268403 -0.101717 -121.378067 571.213559 -0.000000 0.396080 0.366503 -0.346057
7.570000 -14.700116 -167.914186 -0.000000 0.109222 0.278632 -0.101526 -125.550864 603.297576 -0.000000 0.397629 0.355832 -0.345742
7.575000 0.232920 -142.635435 -0.000000 0.107932 0.288688 -0.101346 -127.657198 634.017691 -0.000000 0.398492 0.344971 -0.345496
7.580000 16.185154 -120.491738 -0.000000 0.107359 0.298964 -0.101268 -127.048314 663.603774 -0.000000 0.399065 0.334005 -0.345223
7.585000 31.802593 -102.044538 -0.000000 0.107499 0.309165 -0.101214 -124.878043 692.108181 -0.000000 0.399288 0.323050 -0.344632
7.590000 45.753025 -87.549340 -0.000000 0.108453 0.319439 -0.101082 -120.963979 719.875894 -0.000000 0.398996 0.312081 -0.344358
7.595000 57.119682 -77.054284 -0.000000 0.109901 0.329664 -0.100954 -115.732306 747.127762 -0.000000 0.398253 0.301130 -0.343908
7.600000 65.218375 -70.457041 -0.000000 0.112159 0.339864 -0.100956 -109.312041 774.185866 -0.000000 0.397018 0.290256 -0.343456
7.605000 69.636115 -67.471889 -0.000000 0.114863 0.349948 -0.100972 -101.821542 801.408447 -0.000000 0.395321 0.279363 -0.343063
7.610000 70.228618 -67.603929 -0.000000 0.118183 0.359953 -0.101041 -93.465226 829.074547 -0.000000 0.393052 0.268651 -0.342639
7.615000 67.020365 -70.260028 -0.000000 0.122832 0.369883 -0.101385 -83.288263 857.427351 -0.000000 0.390149 0.258228 -0.342256
7.620000 60.380191 -74.614509 -0.000000 0.127706 0.379645 -0.101438 -71.519564 886.398716 -0.000000 0.386576 0.247961 -0.342044
7.625000 50.817481 -79.867551 -0.000000 0.132929 0.389270 -0.101507 -57.851546 915.830782 -0.000000 0.382513 0.237881 -0.341820
7.630000 39.015695 -85.251777 -0.000000 0.138883 0.398455 -0.101598 -42.685980 945.351789 -0.000000 0.377916 0.228234 -0.341596
7.635000 25.531239 -90.216633 -0.000000 0.145420 0.407500 -0.101771 -24.464844 974.533423 -0.000000 0.372772 0.218805 -0.341318
7.640000 11.112713 -94.272638 -0.000000 0.152450 0.416312 -0.101984 -3.911469 1002.728135 -0.000000 0.367140 0.209698 -0.341274
7.645000 -3.549303 -97.147009 -0.000000 0.159925 0.424751 -0.102200 18.461644 1029.201101 -0.000000 0.360981 0.201018 -0.341236
7.650000 -17.841223 -98.726902 -0.000000 0.167827 0.432684 -0.102464 42.269397 1053.037487 -0.000000 0.354457 0.192736 -0.341058
7.655000 -31.347513 -98.961129 -0.000000 0.176104 0.440340 -0.102800 68.057418 1073.202193 -0.000000 0.347524 0.184914 -0.341060
7.660000 -43.628709 -97.841128 -0.000000 0.184614 0.447301 -0.103263 94.621061 1088.862884 -0.000000 0.340166 0.177561 -0.341056
7.665000 -54.579868 -95.227432 -0.000000 0.193712 0.453845 -0.103590 123.150218 1099.211626 -0.000000 0.332501 0.170629 -0.341177
7.670000 -63.895106 -91.034254 -0.000000 0.203017 0.459917 -0.104055 151.585871 1103.955805 -0.000000 0.324565 0.164298 -0.341180
7.675000 -71.419031 -85.120864 -0.000000 0.212271 0.465323 -0.104544 178.429212 1103.110865 -0.000000 0.316393 0.158497 -0.341318
7.680000 -77.376114 -77.037414 -0.000000 0.222334 0.470358 -0.104645 206.301089 1096.213820 -0.000000 0.308009 0.153275 -0.341348
7.685000 -81.519512 -66.760418 -0.000000 0.232225 0.474679 -0.105157 231.298183 1083.949337 -0.000000 0.299432 0.148554 -0.341493
7.690000 -84.056360 -53.840833 -0.000000 0.242973 0.478319 -0.104966 256.182025 1065.661630 -0.000000 0.290723 0.144521 -0.341559
7.695000 -84.650150 -38.696537 -0.000000 0.252323 0.481243 -0.105783 273.682169 1042.760179 -0.000000 0.281868 0.141069 -0.341582
7.700000 -83.703382 -20.718997 -0.000000 0.262509 0.483517 -0.106037 291.668045 1012.624882 -0.000000 0.272511 0.138103 -0.340546
7.705000 -81.073378 -0.528668 -0.000000 0.272931 0.484953 -0.106104 305.467617 975.459769 -0.000000 0.263420 0.135873 -0.340441
7.710000 -76.858043 21.316394 -0.000000 0.283123 0.485525 -0.106075 314.312132 930.468390 -0.000000 0.254311 0.134274 -0.340344
7.715000 -71.185907 44.028492 -0.000000 0.293186 0.485732 -0.106078 317.906715 876.893724 -0.000000 0.245219 0.133349 -0.340193
7.720000 -64.273444 66.577564 -0.000000 0.303131 0.485322 -0.106091 316.019485 814.438536 -0.000000 0.236128 0.133156 -0.340095
7.725000 -56.645417 87.791548 -0.000000 0.312511 0.484315 -0.105923 307.351638 743.992168 -0.000000 0.227168 0.133734 -0.340036
7.730000 -48.802055 106.942518 -0.000000 0.321524 0.482722 -0.105666 293.189024 666.293008 -0.000000 0.218164 0.135068 -0.339945
7.735000 -41.253453 123.727292 -0.000000 0.330312 0.480617 -0.105349 274.515402 582.864330 -0.000000 0.209202 0.137432 -0.339948
7.740000 -34.568647 138.282565 -0.000000 0.338492 0.478055 -0.105081 251.842705 495.919099 -0.000000 0.200222 0.140727 -0.339673
7.745000 -28.879588 151.204739 -0.000000 0.346529 0.474755 -0.104783 227.076129 407.207090 -0.000000 0.191349 0.145064 -0.339337
7.750000 -24.410786 163.267681 -0.000000 0.354191 0.470897 -0.104430 201.037608 319.004378 -0.000000 0.182464 0.150386 -0.339207
7.755000 -21.248303 175.430970 -0.000000 0.361374 0.466198 -0.104257 174.571960 233.475352 -0.000000 0.173647 0.156445 -0.338906
7.760000 -19.451392 188.748388 -0.000000 0.368040 0.460868 -0.103924 148.279705 152.772696 -0.000000 0.165154 0.163193 -0.338682
7.765000 -18.791477 204.330506 -0.000000 0.374310 0.454989 -0.103798 122.875218 78.758534 -0.000000 0.156983 0.170517 -0.338472
7.770000 -19.037472 223.243882 -0.000000 0.379920 0.448457 -0.103570 98.855377 13.276920 -0.000000 0.149096 0.178363 -0.338309
7.775000 -20.026268 246.386957 -0.000000 0.384838 0.441062 -0.103304 76.711682 -41.908904 -0.000000 0.141749 0.186344 -0.337634
7.780000 -21.670340 274.270727 -0.000000 0.389357 0.433167 -0.102989 57.063607 -85.307152 -0.000000 0.135068 0.194145 -0.336918
7.785000 -23.691966 306.799946 -0.000000 0.393509 0.424753 -0.102527 40.513341 -116.051172 -0.000000 0.129174 0.201964 -0.336435
7.790000 -26.191283 343.142718 -0.000000 0.396988 0.416077 -0.102152 27.675282 -134.145578 -0.000000 0.123949 0.209936 -0.336790
7.795000 -28.789075 381.992154 -0.000000 0.399947 0.406827 -0.101917 18.748930 -140.804446 -0.000000 0.119311 0.218106 -0.337170
7.800000 -31.854787 421.852175 -0.000000 0.402526 0.397285 -0.101530 13.935719 -138.191182 -0.000000 0.115275 0.226401 -0.337162
7.805000 -34.822591 461.497999 -0.000000 0.404807 0.387129 -0.101194 12.879196 -129.063358 -0.000000 0.111750 0.235047 -0.337084
7.810000 -37.969810 500.008424 -0.000000 0.406734 0.376612 -0.100817 15.337018 -116.166490 -0.000000 0.108742 0.244063 -0.337339
7.815000 -40.964044 536.867148 -0.000000 0.408283 0.365880 -0.100681 20.709788 -101.895314 -0.000000 0.106188 0.253672 -0.337641
7.820000 -44.741628 571.710844 -0.000000 0.409308 0.355318 -0.101332 28.444421 -87.973688 -0.000000 0.104278 0.263552 -0.337884
7.825000 -48.835845 604.473932 -0.000000 0.410001 0.344833 -0.101781 37.572450 -75.458110 -0.000000 0.103150 0.273652 -0.338243
7.830000 -52.379173 635.350794 -0.000000 0.410005 0.333974 -0.102081 47.175829 -64.836749 -0.000000 0.102603 0.283765 -0.338510
7.835000 -55.044640 664.749567 -0.000000 0.409600 0.322963 -0.101513 56.581455 -56.189363 -0.000000 0.102775 0.293995 -0.338845
7.840000 -56.926454 693.257830 -0.000000 0.408470 0.311834 -0.101586 65.318119 -49.414467 -0.000000 0.103585 0.304136 -0.339052
7.845000 -57.649691 721.585951 -0.000000 0.407228 0.300773 -0.101747 73.014800 -44.487581 -0.000000 0.105107 0.314309 -0.339186
7.850000 -56.276357 750.391290 -0.000000 0.405276 0.289801 -0.101675 79.375678 -41.528040 -0.000000 0.107293 0.324665 -0.339271
7.855000 -53.004538 780.039216 -0.000000 0.402862 0.278912 -0.101398 84.247067 -40.566426 -0.000000 0.110052 0.334863 -0.339283
7.860000 -46.414832 810.804044 -0.000000 0.399900 0.268093 -0.101162 87.421062 -41.776741 -0.000000 0.113473 0.345198 -0.339290
7.865000 -38.827429 842.552619 -0.000000 0.396428 0.257592 -0.101078 88.872120 -44.843283 -0.000000 0.117569 0.354892 -0.339393
7.870000 -27.861130 875.257220 -0.000000 0.392442 0.247410 -0.100932 88.316263 -49.812641 -0.000000 0.122237 0.364775 -0.339423
7.875000 -14.813634 908.562734 -0.000000 0.387914 0.237507 -0.100871 85.688218 -56.184157 -0.000000 0.127485 0.374260 -0.339484
7.880000 0.882590 942.080787 -0.000000 0.382826 0.227990 -0.100826 80.888698 -63.501119 -0.000000 0.133234 0.383651 -0.339614
7.885000 18.675618 975.290166 -0.000000 0.377324 0.218759 -0.100752 73.996807 -71.085920 -0.000000 0.139629 0.392611 -0.339776
7.890000 38.498211 1007.555443 -0.000000 0.371383 0.209951 -0.100544 65.202186 -78.278651 -0.000000 0.146512 0.401319 -0.340015
7.895000 60.413940 1038.083281 -0.000000 0.365021 0.201558 -0.100554 54.794268 -84.444537 -0.000000 0.153919 0.409748 -0.340189
7.900000 83.740287 1065.949796 -0.000000 0.358342 0.193515 -0.100595 43.177616 -88.886440 -0.000000 0.161755 0.417730 -0.340475
7.905000 108.347364 1089.986809 -0.000000 0.351297 0.186104 -0.100569 30.767185 -90.867432 -0.000000 0.170059 0.425345 -0.340681
7.910000 134.263383 1108.694154 -0.000000 0.343888 0.179037 -0.100581 18.048997 -89.557628 -0.000000 0.178645 0.432531 -0.340795
7.915000 160.480368 1120.349740 -0.000000 0.336248 0.172613 -0.100428 5.685750 -84.027974 -0.000000 0.187554 0.439278 -0.340868
7.920000 186.421125 1122.893102 -0.000000 0.328452 0.166743 -0.100192 -5.607870 -73.366442 -0.000000 0.196653 0.445677 -0.340854
7.925000 211.377387 1114.053357 -0.000000 0.320429 0.161315 -0.100025 -15.034778 -56.853633 -0.000000 0.205910 0.451406 -0.340688
7.930000 232.815853 1091.890572 -0.000000 0.312647 0.156663 -0.099617 -21.733755 -34.270472 -0.000000 0.215318 0.456512 -0.340541
7.935000 254.819058 1053.293327 -0.000000 0.303993 0.152431 -0.099685 -25.159341 -5.961674 -0.000000 0.225229 0.460874 -0.340975
7.940000 269.338054 998.528119 -0.000000 0.296002 0.148862 -0.099306 -24.732253 26.650415 -0.000000 0.235152 0.464427 -0.340511
7.945000 278.010730 926.953589 -0.000000 0.287818 0.145677 -0.099062 -20.539782 61.568872 -0.000000 0.245046 0.467410 -0.340542
7.950000 278.243193 840.691923 -0.000000 0.279808 0.143070 -0.098741 -13.222422 96.237975 -0.000000 0.254799 0.469905 -0.340815
7.955000 269.129781 743.420447 -0.000000 0.272055 0.141232 -0.098281 -4.009409 128.157650 -0.000000 0.264226 0.472135 -0.341159
7.960000 252.511634 639.663612 -0.000000 0.264263 0.140644 -0.098036 5.796036 155.337723 -0.000000 0.273479 0.474099 -0.341591
7.965000 231.423253 534.499373 -0.000000 0.255909 0.140630 -0.098063 15.160567 176.658082 -0.000000 0.282857 0.475750 -0.341885
